# xmcd
#
# Track frame offsets: 
#        150
#        12587
#        28979
#        41968
#
# Disc length: 865 seconds
#
# Revision: 0
# Processed by: cddbd v1.5.2PL0 Copyright (c) Steve Scherf et al.
# Submitted via: ExactAudioCopy v0.99pb5
#
DISCID=34035f04
DTITLE=California Speedbag - Cal 99
DYEAR=1999
DGENRE=Alternative
TTITLE0=Barstool Mountain
TTITLE1=I Stopped Drinkin'
TTITLE2=Homefries
TTITLE3=Loving You Could Never Be Better
EXTD=
EXTT0=
EXTT1=
EXTT2=
EXTT3=
PLAYORDER=
